<?xml version="1.0" encoding="utf-8"?>
<!-- Generator: Adobe Illustrator 24.3.0, SVG Export Plug-In . SVG Version: 6.00 Build 0)  -->
<svg version="1.2" baseProfile="tiny" id="Layer_1" xmlns:svg="http://www.w3.org/2000/svg"
	 xmlns="http://www.w3.org/2000/svg" xmlns:xlink="http://www.w3.org/1999/xlink" x="0px" y="0px" width="51.1px" height="65.5px"
	 viewBox="0 0 51.1 65.5" overflow="visible" xml:space="preserve">
<g id="schematic">
	<rect x="14.7" y="0.4" fill="#FFFFFF" width="36" height="64.8"/>
	<text id="label" transform="matrix(1 0 0 1 27.7891 28.2266)" font-family="'DroidSans'" font-size="4.25px">RJ50</text>
	<text id="label_1_" transform="matrix(1 0 0 1 30.5684 32.7598)" font-family="'DroidSans'" font-size="4.25px">10</text>
	
		<line fill="none" stroke="#000000" stroke-width="0.9" stroke-linecap="round" stroke-miterlimit="11.3386" x1="14.7" y1="65.2" x2="50.7" y2="65.2"/>
	
		<line fill="none" stroke="#000000" stroke-width="0.9" stroke-linecap="round" stroke-miterlimit="11.3386" x1="50.7" y1="65.2" x2="50.7" y2="0.4"/>
	
		<line fill="none" stroke="#000000" stroke-width="0.9" stroke-linecap="round" stroke-miterlimit="11.3386" x1="50.7" y1="0.4" x2="14.7" y2="0.4"/>
	
		<line fill="none" stroke="#000000" stroke-width="0.9" stroke-linecap="round" stroke-miterlimit="11.3386" x1="14.7" y1="0.4" x2="14.7" y2="65.2"/>
	
		<line id="connector0pin" fill="none" stroke="#787878" stroke-width="0.7" stroke-linecap="round" stroke-miterlimit="11.3386" x1="0.3" y1="5.6" x2="14.7" y2="5.6"/>
	<polygon id="connector0terminal" fill="none" points="0.3,8.6 0.3,8.6 0.3,8.6 	"/>
	<text transform="matrix(1 0 0 1 6.8545 4.5098)" fill="#8C8C8C" font-family="'DroidSans'" font-size="2.5px">1</text>
	<text transform="matrix(1 0 0 1 16.8496 6.2598)" fill="#787878" font-family="'DroidSans'" font-size="3.5px">1</text>
	
		<line id="connector1pin" fill="none" stroke="#787878" stroke-width="0.7" stroke-linecap="round" stroke-miterlimit="11.3386" x1="0.3" y1="11.8" x2="14.7" y2="11.8"/>
	<polygon id="connector1terminal" fill="none" points="0.3,11.8 0.3,11.8 0.3,11.8 	"/>
	<text transform="matrix(1 0 0 1 6.8545 10.709)" fill="#8C8C8C" font-family="'DroidSans'" font-size="2.5px">2</text>
	<text transform="matrix(1 0 0 1 16.8496 12.459)" fill="#787878" font-family="'DroidSans'" font-size="3.5px">2</text>
	
		<line id="connector2pin" fill="none" stroke="#787878" stroke-width="0.7" stroke-linecap="round" stroke-miterlimit="11.3386" x1="0.3" y1="18" x2="14.7" y2="18"/>
	<polygon id="connector2terminal" fill="none" points="0.3,18 0.3,18 0.3,18 	"/>
	<text transform="matrix(1 0 0 1 6.8545 16.9102)" fill="#8C8C8C" font-family="'DroidSans'" font-size="2.5px">3</text>
	<text transform="matrix(1 0 0 1 16.8496 18.6602)" fill="#787878" font-family="'DroidSans'" font-size="3.5px">3</text>
	
		<line id="connector3pin" fill="none" stroke="#787878" stroke-width="0.7" stroke-linecap="round" stroke-miterlimit="11.3386" x1="0.3" y1="24.2" x2="14.7" y2="24.2"/>
	<polygon id="connector3terminal" fill="none" points="0.3,24.2 0.3,24.2 0.3,24.2 	"/>
	<text transform="matrix(1 0 0 1 6.8545 23.1094)" fill="#8C8C8C" font-family="'DroidSans'" font-size="2.5px">4</text>
	<text transform="matrix(1 0 0 1 16.8496 24.8594)" fill="#787878" font-family="'DroidSans'" font-size="3.5px">4</text>
	
		<line id="connector7pin" fill="none" stroke="#787878" stroke-width="0.7" stroke-linecap="round" stroke-miterlimit="11.3386" x1="0.3" y1="49" x2="14.7" y2="49"/>
	<polygon id="connector7terminal" fill="none" points="0.3,49 0.3,49 0.3,49 	"/>
	<text transform="matrix(1 0 0 1 6.8545 47.9102)" fill="#8C8C8C" font-family="'DroidSans'" font-size="2.5px">8</text>
	<text transform="matrix(1 0 0 1 16.8496 49.6602)" fill="#787878" font-family="'DroidSans'" font-size="3.5px">8</text>
	
		<line id="connector8pin" fill="none" stroke="#787878" stroke-width="0.7" stroke-linecap="round" stroke-miterlimit="11.3386" x1="0.3" y1="55.1" x2="14.7" y2="55.1"/>
	<polygon id="connector8terminal" fill="none" points="0.3,55.1 0.3,55.1 0.3,55.1 	"/>
	<text transform="matrix(1 0 0 1 6.8545 54.0014)" fill="#8C8C8C" font-family="'DroidSans'" font-size="2.5px">9</text>
	<text transform="matrix(1 0 0 1 16.8496 55.7514)" fill="#787878" font-family="'DroidSans'" font-size="3.5px">9</text>
	
		<line id="connector9pin" fill="none" stroke="#787878" stroke-width="0.7" stroke-linecap="round" stroke-miterlimit="11.3386" x1="0.3" y1="61.1" x2="14.7" y2="61.1"/>
	<polygon id="connector9terminal" fill="none" points="0.3,61.1 0.3,61.1 0.3,61.1 	"/>
	<text transform="matrix(1 0 0 1 6.8545 60.033)" fill="#8C8C8C" font-family="'DroidSans'" font-size="2.5px">10</text>
	<text transform="matrix(1 0 0 1 16.8496 61.783)" fill="#787878" font-family="'DroidSans'" font-size="3.5px">10</text>
	
		<line id="connector6pin" fill="none" stroke="#787878" stroke-width="0.7" stroke-linecap="round" stroke-miterlimit="11.3386" x1="0.3" y1="42.8" x2="14.7" y2="42.8"/>
	<polygon id="connector6terminal" fill="none" points="0.3,42.8 0.3,42.8 0.3,42.8 	"/>
	<text transform="matrix(1 0 0 1 6.8545 41.709)" fill="#8C8C8C" font-family="'DroidSans'" font-size="2.5px">7</text>
	<text transform="matrix(1 0 0 1 16.8496 43.459)" fill="#787878" font-family="'DroidSans'" font-size="3.5px">7</text>
	
		<line id="connector5pin" fill="none" stroke="#787878" stroke-width="0.7" stroke-linecap="round" stroke-miterlimit="11.3386" x1="0.3" y1="36.6" x2="14.7" y2="36.6"/>
	<polygon id="connector5terminal" fill="none" points="0.3,36.6 0.3,36.6 0.3,36.6 	"/>
	<text transform="matrix(1 0 0 1 6.8545 35.5098)" fill="#8C8C8C" font-family="'DroidSans'" font-size="2.5px">6</text>
	<text transform="matrix(1 0 0 1 16.8496 37.2598)" fill="#787878" font-family="'DroidSans'" font-size="3.5px">6</text>
	
		<line id="connector4pin" fill="none" stroke="#787878" stroke-width="0.7" stroke-linecap="round" stroke-miterlimit="11.3386" x1="0.3" y1="30.4" x2="14.7" y2="30.4"/>
	<polygon id="connector4terminal" fill="none" points="0.3,30.4 0.3,30.4 0.3,30.4 	"/>
	<text transform="matrix(1 0 0 1 6.8545 29.3105)" fill="#8C8C8C" font-family="'DroidSans'" font-size="2.5px">5</text>
	<text transform="matrix(1 0 0 1 16.8496 31.0605)" fill="#787878" font-family="'DroidSans'" font-size="3.5px">5</text>
</g>
</svg>
