<?xml version="1.0" encoding="utf-8"?>
<!-- Generator: Adobe Illustrator 24.3.0, SVG Export Plug-In . SVG Version: 6.00 Build 0)  -->
<svg version="1.2" baseProfile="tiny" id="Layer_1" xmlns:svg="http://www.w3.org/2000/svg"
	 xmlns="http://www.w3.org/2000/svg" xmlns:xlink="http://www.w3.org/1999/xlink" x="0px" y="0px" width="44.3px" height="46.4px"
	 viewBox="0 0 44.3 46.4" overflow="visible" xml:space="preserve">
<g id="copper0">
	<g id="copper1">

			<circle id="connector9pad" fill="none" stroke="#F7BD13" stroke-width="1.2467" stroke-miterlimit="11.3386" cx="38.4" cy="10.5" r="2"/>

			<circle id="connector8pad" fill="none" stroke="#F7BD13" stroke-width="1.2467" stroke-miterlimit="11.3386" cx="34.8" cy="3.3" r="2"/>

			<circle id="connector7pad" fill="none" stroke="#F7BD13" stroke-width="1.2467" stroke-miterlimit="11.3386" cx="31.2" cy="10.5" r="2"/>

			<circle id="connector6pad" fill="none" stroke="#F7BD13" stroke-width="1.2467" stroke-miterlimit="11.3386" cx="27.6" cy="3.3" r="2"/>

			<circle id="connector5pad" fill="none" stroke="#F7BD13" stroke-width="1.2467" stroke-miterlimit="11.3386" cx="24" cy="10.5" r="2"/>

			<circle id="connector4pad" fill="none" stroke="#F7BD13" stroke-width="1.2467" stroke-miterlimit="11.3386" cx="20.4" cy="3.3" r="2"/>

			<circle id="connector3pad" fill="none" stroke="#F7BD13" stroke-width="1.2467" stroke-miterlimit="11.3386" cx="16.8" cy="10.5" r="2"/>

			<circle id="connector2pad" fill="none" stroke="#F7BD13" stroke-width="1.2467" stroke-miterlimit="11.3386" cx="13.2" cy="3.3" r="2"/>

			<circle id="connector1pad" fill="none" stroke="#F7BD13" stroke-width="1.2467" stroke-miterlimit="11.3386" cx="9.6" cy="10.5" r="2"/>

			<circle id="connector0pad" fill="none" stroke="#F7BD13" stroke-width="1.2467" stroke-miterlimit="11.3386" cx="6" cy="3.3" r="2"/>
		<circle id="nonconn0" cx="6" cy="28.5" r="4.5" stroke='black' stroke-width='0' fill='black'/>
		<circle id="nonconn1" cx="38.4" cy="28.5" r="4.5" stroke='black' stroke-width='0' fill='black'/>
	</g>
</g>
<g id="silkscreen">
	<text transform="matrix(1 0 0 1 5.3603 8.1898)" font-family="'DroidSans'" font-size="2px">1</text>
	<text transform="matrix(1 0 0 1 19.7292 8.1898)" font-family="'DroidSans'" font-size="2px">5</text>
	<text transform="matrix(1 0 0 1 27.0466 8.1898)" font-family="'DroidSans'" font-size="2px">7</text>
	<text transform="matrix(1 0 0 1 34.29 8.1898)" font-family="'DroidSans'" font-size="2px">9</text>
	<text transform="matrix(1 0 0 1 9.0463 15.4847)" font-family="'DroidSans'" font-size="2px">2</text>
	<text transform="matrix(1 0 0 1 16.2902 15.4847)" font-family="'DroidSans'" font-size="2px">4</text>
	<text transform="matrix(1 0 0 1 15.8738 29.7825)" font-family="'DroidSans'" font-size="4px">vertical</text>
	<text transform="matrix(1 0 0 1 23.6076 15.4847)" font-family="'DroidSans'" font-size="2px">6</text>
	<text transform="matrix(1 0 0 1 30.6319 15.4847)" font-family="'DroidSans'" font-size="2px">8</text>
	<text transform="matrix(1 0 0 1 37.3262 15.4847)" font-family="'DroidSans'" font-size="2px">10</text>
	<text transform="matrix(1 0 0 1 12.6317 8.1897)" font-family="'DroidSans'" font-size="2px">3</text>

		<line fill="none" stroke="#F0F0F0" stroke-width="0.576" stroke-linecap="round" stroke-miterlimit="11.3386" x1="0.3" y1="0.3" x2="44" y2="0.3"/>

		<line fill="none" stroke="#F0F0F0" stroke-width="0.576" stroke-linecap="round" stroke-miterlimit="11.3386" x1="0.3" y1="46" x2="0.3" y2="0.3"/>

		<line fill="none" stroke="#F0F0F0" stroke-width="0.576" stroke-linecap="round" stroke-miterlimit="11.3386" x1="0.3" y1="46" x2="44" y2="46"/>

		<line fill="none" stroke="#F0F0F0" stroke-width="0.576" stroke-linecap="round" stroke-miterlimit="11.3386" x1="44" y1="0.3" x2="44" y2="46"/>
</g>
</svg>
