<?xml version="1.0" encoding="utf-8"?>
<!-- Generator: Adobe Illustrator 24.3.0, SVG Export Plug-In . SVG Version: 6.00 Build 0)  -->
<svg version="1.2" baseProfile="tiny" id="Layer_1" xmlns:svg="http://www.w3.org/2000/svg"
	 xmlns="http://www.w3.org/2000/svg" xmlns:xlink="http://www.w3.org/1999/xlink" x="0px" y="0px" width="44.3px" height="58.7px"
	 viewBox="0 0 44.3 58.7" overflow="visible" xml:space="preserve">
<g id="copper0">
	<g id="copper1">

			<circle id="connector9pad" fill="none" stroke="#F7BD13" stroke-width="1.2467" stroke-miterlimit="11.3386" cx="38.4" cy="10.5" r="2"/>

			<circle id="connector8pad" fill="none" stroke="#F7BD13" stroke-width="1.2467" stroke-miterlimit="11.3386" cx="34.8" cy="3.3" r="2"/>

			<circle id="connector7pad" fill="none" stroke="#F7BD13" stroke-width="1.2467" stroke-miterlimit="11.3386" cx="31.2" cy="10.5" r="2"/>

			<circle id="connector6pad" fill="none" stroke="#F7BD13" stroke-width="1.2467" stroke-miterlimit="11.3386" cx="27.6" cy="3.3" r="2"/>

			<circle id="connector5pad" fill="none" stroke="#F7BD13" stroke-width="1.2467" stroke-miterlimit="11.3386" cx="24" cy="10.5" r="2"/>

			<circle id="connector4pad" fill="none" stroke="#F7BD13" stroke-width="1.2467" stroke-miterlimit="11.3386" cx="20.4" cy="3.3" r="2"/>

			<circle id="connector3pad" fill="none" stroke="#F7BD13" stroke-width="1.2467" stroke-miterlimit="11.3386" cx="16.8" cy="10.5" r="2"/>

			<circle id="connector2pad" fill="none" stroke="#F7BD13" stroke-width="1.2467" stroke-miterlimit="11.3386" cx="13.2" cy="3.3" r="2"/>

			<circle id="connector1pad" fill="none" stroke="#F7BD13" stroke-width="1.2467" stroke-miterlimit="11.3386" cx="9.6" cy="10.5" r="2"/>

			<circle id="connector0pad" fill="none" stroke="#F7BD13" stroke-width="1.2467" stroke-miterlimit="11.3386" cx="6" cy="3.3" r="2"/>
		<circle id="nonconn0" cx="6" cy="28.5" r="4.5" stroke='black' stroke-width='0' fill='black'/>
		<circle id="nonconn1" cx="38.4" cy="28.5" r="4.5" stroke='black' stroke-width='0' fill='black'/>
	</g>
</g>
<g id="silkscreen">
	<text transform="matrix(1 0 0 1 5.3493 8.1778)" font-family="'DroidSans'" font-size="2px">1</text>
	<text transform="matrix(1 0 0 1 19.7182 8.1778)" font-family="'DroidSans'" font-size="2px">5</text>
	<text transform="matrix(1 0 0 1 27.0356 8.1778)" font-family="'DroidSans'" font-size="2px">7</text>
	<text transform="matrix(1 0 0 1 34.279 8.1778)" font-family="'DroidSans'" font-size="2px">9</text>
	<text transform="matrix(1 0 0 1 9.0353 15.4727)" font-family="'DroidSans'" font-size="2px">2</text>
	<text transform="matrix(1 0 0 1 16.2792 15.4727)" font-family="'DroidSans'" font-size="2px">4</text>
	<text transform="matrix(1 0 0 1 13.189 29.8513)" font-family="'DroidSans'" font-size="4px">h</text>
	<text transform="matrix(1 0 0 1 15.5445 29.8513)" font-family="'DroidSans'" font-size="4px">o</text>
	<text transform="matrix(1 0 0 1 17.8531 29.8513)" font-family="'DroidSans'" font-size="4px">r</text>
	<text transform="matrix(1 0 0 1 19.4488 29.8513)" font-family="'DroidSans'" font-size="4px">i</text>
	<text transform="matrix(1 0 0 1 20.4839 29.8513)" font-family="'DroidSans'" font-size="4px">z</text>
	<text transform="matrix(1 0 0 1 22.2085 29.8513)" font-family="'DroidSans'" font-size="4px">o</text>
	<text transform="matrix(1 0 0 1 24.5171 29.8513)" font-family="'DroidSans'" font-size="4px">n</text>
	<text transform="matrix(1 0 0 1 26.8726 29.8513)" font-family="'DroidSans'" font-size="4px">t</text>
	<text transform="matrix(1 0 0 1 28.2281 29.8513)" font-family="'DroidSans'" font-size="4px">a</text>
	<text transform="matrix(1 0 0 1 30.3511 29.8513)" font-family="'DroidSans'" font-size="4px">l</text>
	<text transform="matrix(1 0 0 1 23.5966 15.4727)" font-family="'DroidSans'" font-size="2px">6</text>
	<text transform="matrix(1 0 0 1 30.6209 15.4727)" font-family="'DroidSans'" font-size="2px">8</text>
	<text transform="matrix(1 0 0 1 37.3152 15.4727)" font-family="'DroidSans'" font-size="2px">10</text>
	<text transform="matrix(1 0 0 1 12.6207 8.1777)" font-family="'DroidSans'" font-size="2px">3</text>

		<line fill="none" stroke="#F0F0F0" stroke-width="0.576" stroke-linecap="round" stroke-miterlimit="11.3386" x1="0.3" y1="0.3" x2="44" y2="0.3"/>

		<line fill="none" stroke="#F0F0F0" stroke-width="0.576" stroke-linecap="round" stroke-miterlimit="11.3386" x1="0.3" y1="58.4" x2="0.3" y2="0.3"/>

		<line fill="none" stroke="#F0F0F0" stroke-width="0.576" stroke-linecap="round" stroke-miterlimit="11.3386" x1="0.3" y1="58.4" x2="44" y2="58.4"/>

		<line fill="none" stroke="#F0F0F0" stroke-width="0.576" stroke-linecap="round" stroke-miterlimit="11.3386" x1="44" y1="0.3" x2="44" y2="58.4"/>
</g>
</svg>
