<?xml version="1.0" encoding="utf-8"?>
<!-- Generator: Adobe Illustrator 24.3.0, SVG Export Plug-In . SVG Version: 6.00 Build 0)  -->
<svg version="1.2" baseProfile="tiny" id="Layer_1" xmlns:svg="http://www.w3.org/2000/svg"
	 xmlns="http://www.w3.org/2000/svg" xmlns:xlink="http://www.w3.org/1999/xlink" x="0px" y="0px" width="38px" height="42.7px"
	 viewBox="0 0 38 42.7" overflow="visible" xml:space="preserve">
<g id="copper0">
	<g id="copper1">

			<circle id="connector3pad" fill="none" stroke="#F7BD13" stroke-width="1.2467" stroke-miterlimit="11.3386" cx="24.4" cy="3.5" r="2"/>

			<circle id="connector2pad" fill="none" stroke="#F7BD13" stroke-width="1.2467" stroke-miterlimit="11.3386" cx="20.8" cy="10.7" r="2"/>

			<circle id="connector1pad" fill="none" stroke="#F7BD13" stroke-width="1.2467" stroke-miterlimit="11.3386" cx="17.2" cy="3.5" r="2"/>

			<circle id="connector0pad" fill="none" stroke="#F7BD13" stroke-width="1.2467" stroke-miterlimit="11.3386" cx="13.6" cy="10.7" r="2"/>
		<circle id="nonconn0" cx="4.6" cy="28.7" r="4.6" stroke='black' stroke-width='0' fill='black'/>
		<circle id="nonconn1" cx="33.4" cy="28.7" r="4.6" stroke='black' stroke-width='0' fill='black'/>
	</g>
</g>
<g id="silkscreen">
	<text transform="matrix(1 0 0 1 16.5029 8.0895)" font-family="'DroidSans'" font-size="2px">2</text>
	<text transform="matrix(1 0 0 1 12.989 15.3844)" font-family="'DroidSans'" font-size="2px">1</text>
	<text transform="matrix(1 0 0 1 20.2328 15.3844)" font-family="'DroidSans'" font-size="2px">3</text>
	<text transform="matrix(1 0 0 1 12.8761 29.7035)" font-family="'DroidSans'" font-size="4px">vertical</text>
	<text transform="matrix(1 0 0 1 23.7744 8.0894)" font-family="'DroidSans'" font-size="2px">4</text>

		<line fill="none" stroke="#F0F0F0" stroke-width="0.576" stroke-linecap="round" stroke-miterlimit="11.3386" x1="0.6" y1="0.4" x2="37.4" y2="0.3"/>

		<line fill="none" stroke="#F0F0F0" stroke-width="0.576" stroke-linecap="round" stroke-miterlimit="11.3386" x1="0.6" y1="42.5" x2="0.6" y2="0.4"/>

		<line fill="none" stroke="#F0F0F0" stroke-width="0.576" stroke-linecap="round" stroke-miterlimit="11.3386" x1="0.6" y1="42.5" x2="37.4" y2="42.4"/>

		<line fill="none" stroke="#F0F0F0" stroke-width="0.576" stroke-linecap="round" stroke-miterlimit="11.3386" x1="37.4" y1="0.3" x2="37.4" y2="42.4"/>
</g>
</svg>
