<?xml version="1.0" encoding="utf-8"?>
<!-- Generator: Adobe Illustrator 24.3.0, SVG Export Plug-In . SVG Version: 6.00 Build 0)  -->
<svg version="1.2" baseProfile="tiny" id="Layer_1" xmlns:svg="http://www.w3.org/2000/svg"
	 xmlns="http://www.w3.org/2000/svg" xmlns:xlink="http://www.w3.org/1999/xlink" x="0px" y="0px" width="51.1px" height="65.5px"
	 viewBox="0 0 51.1 65.5" overflow="visible" xml:space="preserve">
<g id="schematic">
	<rect x="14.7" y="0.4" fill="#FFFFFF" width="36" height="64.8"/>
	<text id="label" transform="matrix(1 0 0 1 27.7891 28.2266)" font-family="'DroidSans'" font-size="4.25px">RJ11</text>
	<text id="label_1_" transform="matrix(1 0 0 1 27.6116 32.7502)" font-family="'DroidSans'" font-size="4.25px">6p4c</text>
	
		<line fill="none" stroke="#000000" stroke-width="0.9" stroke-linecap="round" stroke-miterlimit="11.3386" x1="14.7" y1="65.2" x2="50.7" y2="65.2"/>
	
		<line fill="none" stroke="#000000" stroke-width="0.9" stroke-linecap="round" stroke-miterlimit="11.3386" x1="50.7" y1="65.2" x2="50.7" y2="0.4"/>
	
		<line fill="none" stroke="#000000" stroke-width="0.9" stroke-linecap="round" stroke-miterlimit="11.3386" x1="50.7" y1="0.4" x2="14.7" y2="0.4"/>
	
		<line fill="none" stroke="#000000" stroke-width="0.9" stroke-linecap="round" stroke-miterlimit="11.3386" x1="14.7" y1="0.4" x2="14.7" y2="65.2"/>
	
		<line id="connector0pin" fill="none" stroke="#787878" stroke-width="0.7" stroke-linecap="round" stroke-miterlimit="11.3386" x1="0.3" y1="20.6" x2="14.7" y2="20.6"/>
	<path id="connector0terminal" fill="none" d="M0.3,23.6L0.3,23.6L0.3,23.6z"/>
	<text transform="matrix(1 0 0 1 6.8545 19.4984)" fill="#8C8C8C" font-family="'DroidSans'" font-size="2.5px">1</text>
	<text transform="matrix(1 0 0 1 16.8496 21.2484)" fill="#787878" font-family="'DroidSans'" font-size="3.5px">1</text>
	
		<line id="connector1pin" fill="none" stroke="#787878" stroke-width="0.7" stroke-linecap="round" stroke-miterlimit="11.3386" x1="0.3" y1="26.8" x2="14.7" y2="26.8"/>
	<path id="connector1terminal" fill="none" d="M0.3,26.8L0.3,26.8L0.3,26.8z"/>
	<text transform="matrix(1 0 0 1 6.8545 25.6975)" fill="#8C8C8C" font-family="'DroidSans'" font-size="2.5px">2</text>
	<text transform="matrix(1 0 0 1 16.8496 27.4475)" fill="#787878" font-family="'DroidSans'" font-size="3.5px">2</text>
	
		<line id="connector2pin" fill="none" stroke="#787878" stroke-width="0.7" stroke-linecap="round" stroke-miterlimit="11.3386" x1="0.3" y1="33" x2="14.7" y2="33"/>
	<path id="connector2terminal" fill="none" d="M0.3,33L0.3,33L0.3,33z"/>
	<text transform="matrix(1 0 0 1 6.8545 31.8987)" fill="#8C8C8C" font-family="'DroidSans'" font-size="2.5px">3</text>
	<text transform="matrix(1 0 0 1 16.8496 33.6487)" fill="#787878" font-family="'DroidSans'" font-size="3.5px">3</text>
	
		<line id="connector3pin" fill="none" stroke="#787878" stroke-width="0.7" stroke-linecap="round" stroke-miterlimit="11.3386" x1="0.3" y1="39.2" x2="14.7" y2="39.2"/>
	<path id="connector3terminal" fill="none" d="M0.3,39.2L0.3,39.2L0.3,39.2z"/>
	<text transform="matrix(1 0 0 1 6.8545 38.0979)" fill="#8C8C8C" font-family="'DroidSans'" font-size="2.5px">4</text>
	<text transform="matrix(1 0 0 1 16.8496 39.8479)" fill="#787878" font-family="'DroidSans'" font-size="3.5px">4</text>
</g>
</svg>
