<?xml version="1.0" encoding="utf-8"?>
<!-- Generator: Adobe Illustrator 24.3.0, SVG Export Plug-In . SVG Version: 6.00 Build 0)  -->
<svg version="1.2" baseProfile="tiny" id="Layer_1" xmlns:svg="http://www.w3.org/2000/svg"
	 xmlns="http://www.w3.org/2000/svg" xmlns:xlink="http://www.w3.org/1999/xlink" x="0px" y="0px" width="60.6px" height="72px"
	 viewBox="0 0 60.6 72" overflow="visible" xml:space="preserve">
<desc>Fritzing breadboard generated by brd2svg</desc>
<g id="breadboard">
	<g id="icon">
		<path fill="#1F7A34" d="M0,0v33.8c1.2,0,2.2,1,2.2,2.2s-1,2.2-2.2,2.2V72h60.6V0H0z"/>
		<g transform="translate(100,105.334)">
			<g>
				<rect x="-91.6" y="-91.2" fill="#1A1A1A" width="43.8" height="32.7"/>
				<g>
					<g>
						<g>
							<polyline fill="#B3B3B3" points="-90.4,-41.6 -90.4,-44.5 -80.8,-44.5 -80.8,-41.6 -90.4,-41.6 							"/>
							<polyline fill="#B3B3B3" points="-90.4,-44.5 -90.4,-58.5 -49,-58.5 -49,-52.8 -49,-52.5 -49,-52.5 -49,-50.3 -49,-50.3 
								-49,-50 -49,-44.5 -58.7,-44.5 -49,-44.5 -49,-41.6 -58.7,-41.6 -64.3,-41.6 -64.3,-41.2 -75.1,-41.2 -75.1,-41.6 
								-80.8,-41.6 -80.8,-44.5 -90.4,-44.5 							"/>
							<polyline fill="#B3B3B3" points="-47.8,-59 -91.6,-59 -91.6,-40.9 -47.8,-40.9 -47.8,-40.9 -91.6,-40.9 -91.6,-41.1 
								-47.8,-41.1 -48.3,-41.1 -48.3,-46.9 -47.8,-46.9 -47.8,-59 							"/>
							<polyline fill="#333333" points="-49.9,-50.3 -49.9,-44.8 -59.4,-44.8 -59.4,-44.1 -59.4,-44.1 -59.4,-43.5 -64.3,-43.5 
								-64.3,-41.8 -64.3,-41.6 -58.7,-41.6 -58.7,-44.5 -49,-44.5 -49,-50 -49.9,-50 -49.9,-50.3 							"/>
							<polyline fill="#333333" points="-49,-58.5 -90.4,-58.5 -90.4,-44.5 -80.8,-44.5 -80.8,-41.6 -75.1,-41.6 -75.1,-43.5 
								-80,-43.5 -80,-44.1 -80.1,-44.1 -80.1,-44.8 -89.5,-44.8 -89.5,-50 -90.4,-50 -90.4,-52.8 -89.5,-52.8 -89.5,-58 -83.3,-58 
								-82,-58 -81.7,-58 -81.4,-58 -81.2,-58 -80.9,-58 -80.7,-58 -80.4,-58 -80.1,-58 -78.8,-58 -78.4,-58 -78.2,-58 -78,-58 
								-77.6,-58 -77.4,-58 -77.2,-58 -76.8,-58 -75.6,-58 -75.2,-58 -74.9,-58 -74.7,-58 -74.4,-58 -74.2,-58 -73.9,-58 -73.6,-58 
								-72.3,-58 -71.9,-58 -71.7,-58 -71.5,-58 -71.1,-58 -70.9,-58 -70.7,-58 -70.3,-58 -69.1,-58 -68.7,-58 -68.5,-58 -68.3,-58 
								-67.9,-58 -67.7,-58 -67.5,-58 -67.1,-58 -65.8,-58 -65.5,-58 -65.2,-58 -65,-58 -64.7,-58 -64.5,-58 -64.2,-58 -63.9,-58 
								-62.6,-58 -62.2,-58 -62,-58 -61.8,-58 -61.4,-58 -61.2,-58 -61,-58 -60.6,-58 -59.4,-58 -59,-58 -58.7,-58 -58.5,-58 
								-58.2,-58 -58,-58 -57.7,-58 -57.4,-58 -56.1,-58 -49.9,-58 -49.9,-52.5 -49.9,-52.8 -49,-52.8 -49,-58.5 							"/>
							<polyline points="-80,-43.5 -80,-44.1 -59.4,-44.1 -59.4,-43.5 -80,-43.5 							"/>
							<polyline points="-83.3,-44.8 -83.3,-48.8 -82,-48.8 -82,-44.8 -83.3,-44.8 							"/>
							<polyline points="-76.8,-44.1 -76.8,-48.8 -75.6,-48.8 -75.6,-44.1 -76.8,-44.1 							"/>
							<polyline points="-73.6,-44.1 -73.6,-48.8 -72.3,-48.8 -72.3,-44.1 -73.6,-44.1 							"/>
							<polyline points="-70.3,-44.1 -70.3,-48.8 -69.1,-48.8 -69.1,-44.1 -70.3,-44.1 							"/>
							<polyline points="-67.1,-44.1 -67.1,-48.8 -65.8,-48.8 -65.8,-44.1 -67.1,-44.1 							"/>
							<polyline points="-63.9,-44.1 -63.9,-48.8 -62.6,-48.8 -62.6,-44.1 -63.9,-44.1 							"/>
							<polyline points="-57.4,-44.8 -57.4,-48.8 -56.1,-48.8 -56.1,-44.8 -57.4,-44.8 							"/>
							<polyline points="-49.9,-58 -56.1,-58 -56.1,-49.1 -57.4,-49.1 -57.4,-58 -57.7,-58 -57.7,-50.5 -59,-50.5 -59,-58 
								-59.4,-58 -59.4,-49.1 -60.6,-49.1 -60.6,-58 -61,-58 -61,-50.5 -62.2,-50.5 -62.2,-58 -62.6,-58 -62.6,-49.1 -63.9,-49.1 
								-63.9,-58 -64.2,-58 -64.2,-50.5 -65.5,-50.5 -65.5,-58 -65.8,-58 -65.8,-49.1 -67.1,-49.1 -67.1,-58 -67.5,-58 -67.5,-50.5 
								-68.7,-50.5 -68.7,-58 -69.1,-58 -69.1,-49.1 -70.3,-49.1 -70.3,-58 -70.7,-58 -70.7,-50.5 -71.9,-50.5 -71.9,-58 -72.3,-58 
								-72.3,-49.1 -73.6,-49.1 -73.6,-58 -73.9,-58 -73.9,-50.5 -75.2,-50.5 -75.2,-58 -75.6,-58 -75.6,-49.1 -76.8,-49.1 
								-76.8,-58 -77.2,-58 -77.2,-50.5 -78.4,-50.5 -78.4,-58 -78.8,-58 -78.8,-49.1 -80.1,-49.1 -80.1,-58 -80.4,-58 -80.4,-50.5 
								-81.7,-50.5 -81.7,-58 -82,-58 -82,-49.1 -83.3,-49.1 -83.3,-58 -89.5,-58 -89.5,-52.8 -89.5,-52.5 -89.3,-52.5 -89.1,-52.5 
								-89,-52.5 -88.8,-52.5 -88.6,-52.5 -88.6,-50.3 -89.5,-50.3 -89.5,-50 -89.5,-44.8 -80.1,-44.8 -80.1,-48.8 -78.8,-48.8 
								-78.8,-44.1 -80,-44.1 -80,-43.5 -75.1,-43.5 -75.1,-41.6 -75.1,-41.8 -64.3,-41.8 -64.3,-43.5 -59.4,-43.5 -59.4,-44.1 
								-60.6,-44.1 -60.6,-48.8 -59.4,-48.8 -59.4,-44.8 -49.9,-44.8 -49.9,-50.3 -50.9,-50.3 -50.9,-52.5 -50.6,-52.5 -50.5,-52.5 
								-50.3,-52.5 -50.1,-52.5 -49.9,-52.5 -49.9,-58 							"/>
							<polyline fill="#1A1A1A" points="-59.4,-44.1 -80,-44.1 -80,-43.5 -59.4,-43.5 -59.4,-44.1 							"/>
							<polyline fill="#1A1A1A" points="-64.3,-41.8 -75.1,-41.8 -75.1,-41.6 -75.1,-41.2 -64.3,-41.2 -64.3,-41.6 -64.3,-41.8 
															"/>
							<polyline points="-49,-50.3 -49.9,-50.3 -49.9,-50 -49,-50 -49,-50.3 							"/>
							<polyline points="-49,-52.8 -49.9,-52.8 -49.9,-52.5 -49.9,-52.5 -49,-52.5 -49,-52.8 							"/>
							<polyline points="-89.5,-52.8 -90.4,-52.8 -90.4,-50 -89.5,-50 -89.5,-50.3 -90.4,-50.3 -90.4,-52.5 -89.6,-52.5 
								-89.5,-52.5 -89.5,-52.8 							"/>
							<polyline fill="#CCCCCC" points="-49,-52.5 -49,-52.5 -49.9,-52.5 -49.9,-50.3 -50.9,-50.3 -50.9,-52.5 -50.9,-50.3 
								-49.9,-50.3 -49,-50.3 -49,-50.3 -49,-52.5 							"/>
							<polyline fill="#B3B3B3" points="-49.9,-52.5 -49.9,-52.5 -50.1,-52.5 -50.1,-50.3 -50.9,-50.3 -50.9,-52.5 -50.9,-50.3 
								-49.9,-50.3 -49.9,-52.5 							"/>
							<polyline fill="#999999" points="-50.1,-52.5 -50.3,-52.5 -50.3,-50.3 -50.9,-50.3 -50.9,-52.5 -50.9,-50.3 -50.1,-50.3 
								-50.1,-52.5 							"/>
							<polyline fill="#808080" points="-50.3,-52.5 -50.5,-52.5 -50.5,-50.3 -50.6,-50.3 -50.6,-52.5 -50.9,-52.5 -50.9,-50.3 
								-50.3,-50.3 -50.3,-52.5 							"/>
							<polyline fill="#CCCCCC" points="-50.5,-52.5 -50.6,-52.5 -50.6,-50.3 -50.5,-50.3 -50.5,-52.5 							"/>
							<polyline fill="#CCCCCC" points="-89.6,-52.5 -90.4,-52.5 -90.4,-50.3 -89.5,-50.3 -88.6,-50.3 -89.6,-50.3 -89.6,-52.5 
															"/>
							<polyline fill="#B3B3B3" points="-89.3,-52.5 -89.5,-52.5 -89.6,-52.5 -89.6,-50.3 -88.6,-50.3 -89.3,-50.3 -89.3,-52.5 
															"/>
							<polyline fill="#999999" points="-89.1,-52.5 -89.3,-52.5 -89.3,-50.3 -88.6,-50.3 -89.1,-50.3 -89.1,-52.5 							"/>
							<polyline fill="#808080" points="-88.6,-52.5 -88.8,-52.5 -88.8,-50.3 -89,-50.3 -89,-52.5 -89.1,-52.5 -89.1,-50.3 
								-88.6,-50.3 -88.6,-52.5 							"/>
							<polyline fill="#CCCCCC" points="-88.8,-52.5 -89,-52.5 -89,-50.3 -88.8,-50.3 -88.8,-52.5 							"/>
							<polyline fill="#0F0F0F" points="-56.1,-48.8 -57.4,-48.8 -57.4,-44.8 -56.1,-44.8 -56.1,-48.8 							"/>
							<polyline fill="#252525" points="-59.4,-44.8 -59.4,-44.8 -59.4,-44.1 -59.4,-44.1 -59.4,-44.8 							"/>
							<polyline fill="#0F0F0F" points="-59.4,-48.8 -60.6,-48.8 -60.6,-44.1 -59.4,-44.1 -59.4,-44.8 -59.4,-44.8 -59.4,-48.8 
															"/>
							<polyline fill="#0F0F0F" points="-62.6,-48.8 -63.9,-48.8 -63.9,-44.1 -62.6,-44.1 -62.6,-48.8 							"/>
							<polyline fill="#0F0F0F" points="-65.8,-48.8 -67.1,-48.8 -67.1,-44.1 -65.8,-44.1 -65.8,-48.8 							"/>
							<polyline fill="#0F0F0F" points="-69.1,-48.8 -70.3,-48.8 -70.3,-44.1 -69.1,-44.1 -69.1,-48.8 							"/>
							<polyline fill="#0F0F0F" points="-72.3,-48.8 -73.6,-48.8 -73.6,-44.1 -72.3,-44.1 -72.3,-48.8 							"/>
							<polyline fill="#0F0F0F" points="-75.6,-48.8 -76.8,-48.8 -76.8,-44.1 -75.6,-44.1 -75.6,-48.8 							"/>
							<polyline fill="#252525" points="-80,-44.8 -80.1,-44.8 -80.1,-44.1 -80,-44.1 -80,-44.8 							"/>
							<polyline fill="#0F0F0F" points="-78.8,-48.8 -80.1,-48.8 -80.1,-44.8 -80,-44.8 -80,-44.1 -78.8,-44.1 -78.8,-48.8 							
								"/>
							<polyline fill="#0F0F0F" points="-82,-48.8 -83.3,-48.8 -83.3,-44.8 -82,-44.8 -82,-48.8 							"/>
							<polyline fill="#0D0D0D" points="-56.1,-58 -57.4,-58 -57.4,-49.1 -56.1,-49.1 -56.1,-58 							"/>
							<polyline fill="#0D0D0D" points="-59.4,-58 -60.6,-58 -60.6,-49.1 -59.4,-49.1 -59.4,-58 							"/>
							<polyline fill="#0D0D0D" points="-62.6,-58 -63.9,-58 -63.9,-49.1 -62.6,-49.1 -62.6,-58 							"/>
							<polyline fill="#0D0D0D" points="-65.8,-58 -67.1,-58 -67.1,-49.1 -65.8,-49.1 -65.8,-58 							"/>
							<polyline fill="#0D0D0D" points="-69.1,-58 -70.3,-58 -70.3,-49.1 -69.1,-49.1 -69.1,-58 							"/>
							<polyline fill="#0D0D0D" points="-72.3,-58 -73.6,-58 -73.6,-49.1 -72.3,-49.1 -72.3,-58 							"/>
							<polyline fill="#0D0D0D" points="-75.6,-58 -76.8,-58 -76.8,-49.1 -75.6,-49.1 -75.6,-58 							"/>
							<polyline fill="#0D0D0D" points="-78.8,-58 -80.1,-58 -80.1,-49.1 -78.8,-49.1 -78.8,-58 							"/>
							<polyline fill="#0D0D0D" points="-82,-58 -83.3,-58 -83.3,-49.1 -82,-49.1 -82,-58 							"/>
							<polyline fill="#6F4813" points="-57.7,-58 -58,-58 -58,-50.5 -58.7,-50.5 -58.7,-58 -59,-58 -59,-50.5 -57.7,-50.5 
								-57.7,-58 							"/>
							<polyline fill="#6F4813" points="-61,-58 -61.2,-58 -61.2,-50.5 -62,-50.5 -62,-58 -62.2,-58 -62.2,-50.5 -61,-50.5 -61,-58 
															"/>
							<polyline fill="#6F4813" points="-64.2,-58 -64.5,-58 -64.5,-50.5 -65.2,-50.5 -65.2,-58 -65.5,-58 -65.5,-50.5 -64.2,-50.5 
								-64.2,-58 							"/>
							<polyline fill="#6F4813" points="-67.5,-58 -67.7,-58 -67.7,-50.5 -68.5,-50.5 -68.5,-58 -68.7,-58 -68.7,-50.5 -67.5,-50.5 
								-67.5,-58 							"/>
							<polyline fill="#6F4813" points="-70.7,-58 -70.9,-58 -70.9,-50.5 -71.7,-50.5 -71.7,-58 -71.9,-58 -71.9,-50.5 -70.7,-50.5 
								-70.7,-58 							"/>
							<polyline fill="#6F4813" points="-73.9,-58 -74.2,-58 -74.2,-50.5 -74.9,-50.5 -74.9,-58 -75.2,-58 -75.2,-50.5 -73.9,-50.5 
								-73.9,-58 							"/>
							<polyline fill="#6F4813" points="-77.2,-58 -77.4,-58 -77.4,-50.5 -78.2,-50.5 -78.2,-58 -78.4,-58 -78.4,-50.5 -77.2,-50.5 
								-77.2,-58 							"/>
							<polyline fill="#6F4813" points="-80.4,-58 -80.7,-58 -80.7,-50.5 -81.4,-50.5 -81.4,-58 -81.7,-58 -81.7,-50.5 -80.4,-50.5 
								-80.4,-58 							"/>
							<polyline fill="#78592E" points="-58,-58 -58.2,-58 -58.2,-50.5 -58.5,-50.5 -58.5,-58 -58.7,-58 -58.7,-50.5 -58,-50.5 
								-58,-58 							"/>
							<polyline fill="#78592E" points="-61.2,-58 -61.4,-58 -61.4,-50.5 -61.8,-50.5 -61.8,-58 -62,-58 -62,-50.5 -61.2,-50.5 
								-61.2,-58 							"/>
							<polyline fill="#78592E" points="-64.5,-58 -64.7,-58 -64.7,-50.5 -65,-50.5 -65,-58 -65.2,-58 -65.2,-50.5 -64.5,-50.5 
								-64.5,-58 							"/>
							<polyline fill="#78592E" points="-67.7,-58 -67.9,-58 -67.9,-50.5 -68.3,-50.5 -68.3,-58 -68.5,-58 -68.5,-50.5 -67.7,-50.5 
								-67.7,-58 							"/>
							<polyline fill="#78592E" points="-70.9,-58 -71.1,-58 -71.1,-50.5 -71.5,-50.5 -71.5,-58 -71.7,-58 -71.7,-50.5 -70.9,-50.5 
								-70.9,-58 							"/>
							<polyline fill="#78592E" points="-74.2,-58 -74.4,-58 -74.4,-50.5 -74.7,-50.5 -74.7,-58 -74.9,-58 -74.9,-50.5 -74.2,-50.5 
								-74.2,-58 							"/>
							<polyline fill="#78592E" points="-77.4,-58 -77.6,-58 -77.6,-50.5 -78,-50.5 -78,-58 -78.2,-58 -78.2,-50.5 -77.4,-50.5 
								-77.4,-58 							"/>
							<polyline fill="#78592E" points="-80.7,-58 -80.9,-58 -80.9,-50.5 -81.2,-50.5 -81.2,-58 -81.4,-58 -81.4,-50.5 -80.7,-50.5 
								-80.7,-58 							"/>
							<polyline fill="#81694A" points="-58.2,-58 -58.5,-58 -58.5,-50.5 -58.2,-50.5 -58.2,-58 							"/>
							<polyline fill="#81694A" points="-61.4,-58 -61.8,-58 -61.8,-50.5 -61.4,-50.5 -61.4,-58 							"/>
							<polyline fill="#81694A" points="-64.7,-58 -65,-58 -65,-50.5 -64.7,-50.5 -64.7,-58 							"/>
							<polyline fill="#81694A" points="-67.9,-58 -68.3,-58 -68.3,-50.5 -67.9,-50.5 -67.9,-58 							"/>
							<polyline fill="#81694A" points="-71.1,-58 -71.5,-58 -71.5,-50.5 -71.1,-50.5 -71.1,-58 							"/>
							<polyline fill="#81694A" points="-74.4,-58 -74.7,-58 -74.7,-50.5 -74.4,-50.5 -74.4,-58 							"/>
							<polyline fill="#81694A" points="-77.6,-58 -78,-58 -78,-50.5 -77.6,-50.5 -77.6,-58 							"/>
							<polyline fill="#81694A" points="-80.9,-58 -81.2,-58 -81.2,-50.5 -80.9,-50.5 -80.9,-58 							"/>
							<polyline fill="#999999" points="-47.8,-41.1 -91.6,-41.1 -91.6,-40.9 -47.8,-40.9 -47.8,-41.1 							"/>
							<polyline fill="#999999" points="-47.8,-46.9 -48.3,-46.9 -48.3,-41.1 -47.8,-41.1 -47.8,-46.9 							"/>
						</g>
					</g>
				</g>
				<g>
					<path fill="#B3B3B3" d="M-80.8-68.3c0-0.4,0.3-0.7,0.7-0.7h2.6c0.4,0,0.7,0.3,0.7,0.7v9.4c0,0.4-0.3,0.7-0.7,0.7H-80
						c-0.4,0-0.7-0.3-0.7-0.7v-9.4H-80.8z"/>
					<path fill="#B3B3B3" d="M-62.8-68.3c0-0.4,0.3-0.7,0.7-0.7h2.6c0.4,0,0.7,0.3,0.7,0.7v9.4c0,0.4-0.3,0.7-0.7,0.7H-62
						c-0.4,0-0.7-0.3-0.7-0.7L-62.8-68.3L-62.8-68.3z"/>
					<path fill="#CCCCCC" d="M-80.8-68.3c0-0.4,0.3-0.7,0.7-0.7h2.6c0.4,0,0.7,0.3,0.7,0.7v1.2h-4.1L-80.8-68.3L-80.8-68.3z"/>
					<path fill="#CCCCCC" d="M-62.8-68.3c0-0.4,0.3-0.7,0.7-0.7h2.6c0.4,0,0.7,0.3,0.7,0.7v1.2h-4.1L-62.8-68.3z"/>
					<rect x="-80.8" y="-67.3" fill="#999999" width="4.1" height="4.1"/>
					<rect x="-62.8" y="-67.3" fill="#999999" width="4.1" height="4.1"/>
					<rect x="-80.8" y="-64.8" fill="#B3B3B3" width="4.1" height="3.9"/>
					<rect x="-62.8" y="-64.8" fill="#B3B3B3" width="4.1" height="3.9"/>
					<rect x="-80.8" y="-63" fill="#CCCCCC" width="4.1" height="1.5"/>
					<rect x="-62.8" y="-63" fill="#CCCCCC" width="4.1" height="1.5"/>
					<rect x="-80.8" y="-67.5" fill="#E6E6E6" width="4.1" height="0.3"/>
					<rect x="-80.8" y="-68" fill="#F2F2F2" width="4.1" height="0.5"/>
					<path fill="#CCCCCC" d="M-47.8-69.4V-97v-0.7h-0.7h-42.3h-0.7v0.7v27.6h0.3V-59h0.4h8.6h0.7v-0.7l0.3-5.1l0.3-5.1
						c0-0.4,0.4-0.7,0.8-0.7h2.7c0.4,0,0.7,0.3,0.8,0.7l0.3,5.1l0.3,5.1l0,0v0.7h0.7h10.9h0.7v-0.7l0,0l0.3-5.1l0.3-5.1
						c0-0.4,0.4-0.7,0.8-0.7h2.6c0.4,0,0.7,0.3,0.8,0.7l0.3,5.1l0.3,5.1l0,0v0.7h0.7h8.6h0.4v-10.4H-47.8L-47.8-69.4z"/>
				</g>
				<g>
					<g>
						<rect x="-92.8" y="-56.1" fill="#999999" width="0.4" height="1.7"/>
						<rect x="-92.8" y="-56.1" fill="#999999" width="0.4" height="1.7"/>
					</g>
					<path fill="#999999" d="M-91.6-49.7c0,0-0.7-3-0.8-4.7h-0.4c0.1,1.8,0.8,4.7,0.8,4.7s0.3,1.5,0.4,1.9
						C-91.6-48.8-91.6-49.7-91.6-49.7z"/>
					<path fill="#CCCCCC" d="M-91.6-51.4c0,0-0.7-3-0.8-4.8h-0.4c0.1,1.8,0.8,4.8,0.8,4.8s0.3,1.5,0.4,1.9
						C-91.6-50.4-91.6-51.4-91.6-51.4z"/>
				</g>
				<g>
					<g>
						<rect x="-47" y="-56.1" fill="#999999" width="0.4" height="1.7"/>
						<rect x="-47" y="-56.1" fill="#999999" width="0.4" height="1.7"/>
					</g>
					<path fill="#999999" d="M-47.8-49.7c0,0,0.7-3,0.8-4.7h0.4c-0.1,1.8-0.8,4.7-0.8,4.7s-0.3,1.5-0.4,1.9
						C-47.8-48.8-47.8-49.7-47.8-49.7z"/>
					<path fill="#CCCCCC" d="M-47.8-51.4c0,0,0.7-3,0.8-4.8h0.4c-0.1,1.8-0.8,4.8-0.8,4.8s-0.3,1.5-0.4,1.9
						C-47.8-50.4-47.8-51.4-47.8-51.4z"/>
				</g>
			</g>
		</g>
	</g>
	<g transform="translate(354.646,934.05)">
		<rect id="connector0pin" x="-332.7" y="-866.8" fill="#8D8C8C" width="2.3" height="2.3"/>
		<rect x="-332.2" y="-866.2" fill="#8C8663" width="1.2" height="1.2"/>
		<polygon fill="#B8AF82" points="-332.7,-864.5 -332.2,-865.1 -332.2,-866.3 -332.7,-866.8 		"/>
		<polygon fill="#80795B" points="-331,-866.2 -332.1,-866.2 -332.7,-866.8 -330.4,-866.8 		"/>
		<polygon fill="#5E5B43" points="-331,-865.1 -331,-866.2 -330.4,-866.8 -330.4,-864.5 		"/>
		<polygon fill="#9A916C" points="-332.7,-864.5 -332.1,-865.1 -331,-865.1 -330.4,-864.5 		"/>
	</g>
	<g transform="translate(354.646,34.05)">
		<rect id="connector3pin_1_" x="-332.7" y="-31.6" fill="#8D8C8C" width="2.3" height="2.3"/>
		<rect x="-332.1" y="-31" fill="#8C8663" width="1.2" height="1.2"/>
		<polygon fill="#B8AF82" points="-332.7,-29.3 -332.1,-29.9 -332.1,-31.1 -332.7,-31.6 		"/>
		<polygon fill="#80795B" points="-331,-31 -332.1,-31 -332.7,-31.6 -330.4,-31.6 		"/>
		<polygon fill="#5E5B43" points="-331,-29.9 -331,-31 -330.4,-31.6 -330.4,-29.3 		"/>
		<polygon fill="#9A916C" points="-332.7,-29.3 -332.1,-29.9 -331,-29.9 -330.4,-29.3 		"/>
	</g>
	<g transform="translate(554.646,934.05)">
		<rect id="connector1pin" x="-518.3" y="-866.8" fill="#8D8C8C" width="2.3" height="2.3"/>
		<rect x="-517.8" y="-866.2" fill="#8C8663" width="1.2" height="1.2"/>
		<polygon fill="#B8AF82" points="-518.3,-864.5 -517.8,-865.1 -517.8,-866.3 -518.3,-866.8 		"/>
		<polygon fill="#80795B" points="-516.6,-866.2 -517.7,-866.2 -518.3,-866.8 -516,-866.8 		"/>
		<polygon fill="#5E5B43" points="-516.6,-865.1 -516.6,-866.2 -516,-866.8 -516,-864.5 		"/>
		<polygon fill="#9A916C" points="-518.3,-864.5 -517.7,-865.1 -516.6,-865.1 -516,-864.5 		"/>
	</g>
	<g transform="translate(554.646,34.05)">
		<rect id="connector2pin" x="-518.3" y="-31.6" fill="#8D8C8C" width="2.3" height="2.3"/>
		<rect x="-517.7" y="-31" fill="#8C8663" width="1.2" height="1.2"/>
		<polygon fill="#B8AF82" points="-518.3,-29.3 -517.7,-29.9 -517.7,-31.1 -518.3,-31.6 		"/>
		<polygon fill="#80795B" points="-516.6,-31 -517.7,-31 -518.3,-31.6 -516,-31.6 		"/>
		<polygon fill="#5E5B43" points="-516.6,-29.9 -516.6,-31 -516,-31.6 -516,-29.3 		"/>
		<polygon fill="#9A916C" points="-518.3,-29.3 -517.7,-29.9 -516.6,-29.9 -516,-29.3 		"/>
	</g>
</g>
</svg>
