<?xml version="1.0" encoding="utf-8"?>
<!-- Generator: Adobe Illustrator 24.3.0, SVG Export Plug-In . SVG Version: 6.00 Build 0)  -->
<svg version="1.2" baseProfile="tiny" id="Layer_1" xmlns:svg="http://www.w3.org/2000/svg"
	 xmlns="http://www.w3.org/2000/svg" xmlns:xlink="http://www.w3.org/1999/xlink" x="0px" y="0px" width="38px" height="51.1px"
	 viewBox="0 0 38 51.1" overflow="visible" xml:space="preserve">
<g id="copper0">
	<g id="copper1">

			<circle id="connector3pad" fill="none" stroke="#F7BD13" stroke-width="1.2467" stroke-miterlimit="11.3386" cx="24.4" cy="3.2" r="2"/>

			<circle id="connector2pad" fill="none" stroke="#F7BD13" stroke-width="1.2467" stroke-miterlimit="11.3386" cx="20.8" cy="10.4" r="2"/>

			<circle id="connector1pad" fill="none" stroke="#F7BD13" stroke-width="1.2467" stroke-miterlimit="11.3386" cx="17.2" cy="3.2" r="2"/>

			<circle id="connector0pad" fill="none" stroke="#F7BD13" stroke-width="1.2467" stroke-miterlimit="11.3386" cx="13.6" cy="10.4" r="2"/>
		<circle id="nonconn0" cx="4.6" cy="28.4" r="4.6" stroke='black' stroke-width='0' fill='black'/>
		<circle id="nonconn1" cx="33.4" cy="28.4" r="4.6" stroke='black' stroke-width='0' fill='black'/>
	</g>
</g>
<g id="silkscreen">
	<text transform="matrix(1 0 0 1 16.4907 7.7155)" font-family="'DroidSans'" font-size="2px">2</text>
	<text transform="matrix(1 0 0 1 12.9767 15.0104)" font-family="'DroidSans'" font-size="2px">1</text>
	<text transform="matrix(1 0 0 1 20.2206 15.0104)" font-family="'DroidSans'" font-size="2px">3</text>
	<text transform="matrix(1 0 0 1 10.044 29.7425)" font-family="'DroidSans'" font-size="4px">h</text>
	<text transform="matrix(1 0 0 1 12.3995 29.7425)" font-family="'DroidSans'" font-size="4px">o</text>
	<text transform="matrix(1 0 0 1 14.7081 29.7425)" font-family="'DroidSans'" font-size="4px">r</text>
	<text transform="matrix(1 0 0 1 16.3038 29.7425)" font-family="'DroidSans'" font-size="4px">i</text>
	<text transform="matrix(1 0 0 1 17.3389 29.7425)" font-family="'DroidSans'" font-size="4px">z</text>
	<text transform="matrix(1 0 0 1 19.0636 29.7425)" font-family="'DroidSans'" font-size="4px">o</text>
	<text transform="matrix(1 0 0 1 21.3721 29.7425)" font-family="'DroidSans'" font-size="4px">n</text>
	<text transform="matrix(1 0 0 1 23.7276 29.7425)" font-family="'DroidSans'" font-size="4px">t</text>
	<text transform="matrix(1 0 0 1 25.0831 29.7425)" font-family="'DroidSans'" font-size="4px">a</text>
	<text transform="matrix(1 0 0 1 27.2061 29.7425)" font-family="'DroidSans'" font-size="4px">l</text>
	<text transform="matrix(1 0 0 1 23.7622 7.7154)" font-family="'DroidSans'" font-size="2px">4</text>

		<line fill="none" stroke="#F0F0F0" stroke-width="0.576" stroke-linecap="round" stroke-miterlimit="11.3386" x1="0.6" y1="0.3" x2="37.4" y2="0.2"/>

		<line fill="none" stroke="#F0F0F0" stroke-width="0.576" stroke-linecap="round" stroke-miterlimit="11.3386" x1="0.6" y1="50.8" x2="0.6" y2="0.3"/>

		<line fill="none" stroke="#F0F0F0" stroke-width="0.576" stroke-linecap="round" stroke-miterlimit="11.3386" x1="0.6" y1="50.8" x2="37.4" y2="50.8"/>

		<line fill="none" stroke="#F0F0F0" stroke-width="0.576" stroke-linecap="round" stroke-miterlimit="11.3386" x1="37.4" y1="0.2" x2="37.4" y2="50.8"/>
</g>
</svg>
